<svg xmlns="http://www.w3.org/2000/svg" viewBox="0 0 64 64" role="img" aria-label="KVB Énergie">
  <defs>
    <linearGradient id="tri" x1="0" y1="0" x2="1" y2="1">
      <stop offset="0" stop-color="#1A7CFF" />
      <stop offset="0.55" stop-color="#18D5FF" />
      <stop offset="1" stop-color="#FFC857" />
    </linearGradient>
    <filter id="s" x="-50%" y="-50%" width="200%" height="200%">
      <feDropShadow dx="0" dy="10" stdDeviation="10" flood-color="#1A7CFF" flood-opacity="0.18" />
    </filter>
  </defs>

  <!-- Simplified mark for small sizes -->
  <path
    d="M32 10
       C36 10 39.2 11.8 41.2 15.0
       L52 32.0
       C53.7 34.7 53.7 38.0 52 40.7
       C50.3 43.3 47.5 45.0 44.4 45.2
       L23.6 45.2
       C20.5 45.0 17.7 43.3 16 40.7
       C14.3 38.0 14.3 34.7 16 32.0
       L26.8 15.0
       C28.8 11.8 32 10 32 10Z"
    fill="url(#tri)"
    filter="url(#s)"
  />
  <path
    d="M36.5 18.5
       L25 33.2
       H31.4
       L28.8 45.5
       L40.3 30.8
       H33.9
       Z"
    fill="#ffffff"
    opacity="0.96"
  />
</svg>

